<?xml version="1.0" standalone="no"?>
<!DOCTYPE svg PUBLIC "-//W3C//DTD SVG 20010904//EN"
 "http://www.w3.org/TR/2001/REC-SVG-20010904/DTD/svg10.dtd">
<svg version="1.0" xmlns="http://www.w3.org/2000/svg"
 width="512.000000pt" height="512.000000pt" viewBox="0 0 512.000000 512.000000"
 preserveAspectRatio="xMidYMid meet">
<metadata>
Created by potrace 1.14, written by Peter Selinger 2001-2017
</metadata>
<g transform="translate(0.000000,512.000000) scale(0.100000,-0.100000)"
fill="#000000" stroke="none">
<path d="M204 4697 l-28 -24 0 -2099 c-1 -1289 3 -2109 8 -2126 6 -14 20 -31
33 -37 17 -8 716 -11 2353 -11 l2328 0 24 28 23 28 -1 2108 0 2109 -28 23 -27
24 -2329 0 -2329 0 -27 -23z m4588 -139 c2 -7 3 -157 3 -333 l-1 -320 -1327
-3 -1327 -2 -142 106 c-78 59 -154 110 -168 113 -14 4 -357 7 -762 6 -656 -1
-738 1 -739 15 -1 8 -2 41 -3 72 -1 52 1 58 19 59 11 0 445 0 965 0 582 0 957
4 976 10 73 23 57 138 -20 140 -11 0 -453 1 -981 2 l-959 2 -1 65 c0 36 1 68
3 73 2 4 1006 7 2232 7 1773 0 2229 -3 2232 -12z m-2992 -593 c8 -5 77 -55
153 -112 l138 -103 1352 0 1352 0 -1 -1588 c-1 -873 -2 -1593 -3 -1600 -1 -10
-451 -12 -2233 -10 l-2232 3 -1 1700 c0 935 1 1705 2 1710 4 13 1452 13 1473
0z"/>
<path d="M2882 4397 c-18 -19 -22 -35 -22 -88 0 -56 4 -69 23 -87 29 -27 67
-28 98 -3 20 16 24 29 25 85 2 56 -2 69 -22 91 -30 32 -73 33 -102 2z"/>
<path d="M3251 4394 c-24 -30 -29 -116 -10 -158 20 -42 78 -48 114 -11 21 20
25 34 25 83 0 75 -25 112 -75 112 -24 0 -39 -7 -54 -26z"/>
<path d="M3625 4396 c-21 -21 -23 -32 -21 -91 2 -57 6 -71 25 -86 32 -26 73
-24 99 4 18 19 22 35 22 88 0 56 -4 69 -23 87 -31 29 -72 28 -102 -2z"/>
<path d="M4000 4400 c-11 -11 -21 -26 -21 -32 -12 -122 8 -168 73 -168 29 0
68 34 69 60 5 71 4 88 -4 113 -16 49 -80 64 -117 27z"/>
<path d="M4373 4398 c-21 -23 -26 -49 -24 -119 2 -69 70 -102 122 -60 21 17
23 27 23 91 0 64 -3 75 -23 91 -31 26 -73 24 -98 -3z"/>
<path d="M500 3508 c-11 -12 -21 -24 -21 -27 -1 -3 -2 -314 -3 -691 -3 -726
-2 -730 44 -745 11 -3 396 -6 856 -6 l837 0 25 24 25 25 0 698 0 698 -27 23
-27 23 -844 0 -845 0 -20 -22z m1611 -140 c1 -18 1 -936 0 -973 -1 -25 -26 8
-157 205 -86 129 -167 242 -180 250 -49 30 -68 11 -237 -240 -86 -129 -161
-236 -165 -238 -5 -1 -79 104 -165 233 -97 146 -167 240 -182 247 -52 23 -73
1 -236 -243 -84 -127 -155 -232 -159 -234 -3 -2 -6 223 -6 501 l0 504 743 0
c587 0 743 -3 744 -12z m-961 -948 c82 -123 148 -226 146 -228 -3 -3 -520 -5
-589 -3 -13 1 22 60 135 230 84 126 154 228 155 227 2 -2 70 -103 153 -226z
m748 -8 c79 -118 141 -216 139 -219 -3 -2 -128 -5 -278 -5 -249 0 -274 1 -286
17 -15 22 -29 -3 135 244 84 126 138 199 141 190 3 -8 70 -110 149 -227z"/>
<path d="M2435 3504 c-32 -34 -32 -68 0 -99 l24 -25 1071 0 c1057 0 1070 0
1090 20 33 33 30 75 -6 108 l-25 22 -1065 0 -1065 0 -24 -26z"/>
<path d="M2583 3204 c-20 -20 -24 -31 -19 -57 13 -67 -63 -62 1024 -65 706 -2
995 1 1014 9 48 20 54 92 10 125 -14 11 -208 13 -1010 14 l-993 0 -26 -26z"/>
<path d="M2490 2932 c-85 -8 -109 -101 -35 -139 13 -7 376 -10 1081 -9 1019 1
1063 2 1082 20 12 10 22 28 24 40 6 32 -19 75 -48 82 -25 6 -2038 12 -2104 6z"/>
<path d="M2594 2620 c-49 -30 -43 -104 9 -124 25 -10 258 -12 1014 -12 967 1
983 1 1002 21 31 31 34 71 6 103 l-23 27 -992 0 c-860 0 -994 -2 -1016 -15z"/>
<path d="M2447 2324 c-14 -8 -28 -25 -31 -40 -9 -34 10 -81 35 -89 15 -5 1738
-9 2087 -6 53 1 67 5 87 25 28 28 26 69 -6 101 -19 20 -33 20 -1083 21 -855 0
-1069 -2 -1089 -12z"/>
<path d="M2585 2015 c-14 -13 -25 -36 -25 -50 0 -14 11 -37 25 -50 l24 -25
994 0 c986 0 993 0 1015 20 12 12 23 25 23 30 1 6 2 16 3 23 4 23 -16 55 -41
66 -17 8 -308 11 -1009 11 l-985 0 -24 -25z"/>
<path d="M514 1878 c-12 -5 -26 -20 -31 -32 -5 -12 -9 -235 -9 -524 l1 -504
28 -24 27 -23 457 0 c256 1 468 5 482 10 13 6 30 17 36 26 9 12 12 148 11 530
l-1 515 -24 19 c-22 18 -45 19 -490 18 -299 0 -474 -4 -487 -11z m856 -547 l0
-410 -372 2 -373 2 -1 408 -1 407 374 0 373 0 0 -409z"/>
<path d="M3189 1727 c-9 -7 -20 -21 -26 -32 -6 -12 -9 -186 -9 -447 l1 -428
23 -22 23 -23 699 0 699 0 23 23 23 23 1 427 c1 444 -2 471 -41 486 -9 3 -328
6 -708 6 -528 -1 -696 -4 -708 -13z m1306 -469 l0 -333 -595 -2 -595 -2 0 335
0 334 595 0 596 0 -1 -332z"/>
<path d="M1776 1653 c-16 -8 -27 -25 -31 -46 -3 -17 -5 -204 -3 -414 3 -351 4
-384 21 -400 16 -17 53 -18 520 -20 325 -1 511 1 528 8 15 6 31 21 37 35 15
32 14 778 0 810 -6 13 -18 26 -27 30 -9 4 -242 8 -518 9 -396 1 -507 -2 -527
-12z m929 -433 l0 -295 -407 -2 -408 -2 0 298 0 298 408 -1 407 -1 0 -295z"/>
</g>
</svg>
